<svg width="24" height="24" viewBox="0 0 24 24" fill="none" xmlns="http://www.w3.org/2000/svg">
<path fill-rule="evenodd" clip-rule="evenodd" d="M14.4619 3.61506C12.9487 2.69797 11.0512 2.69798 9.53807 3.61506L4.53806 6.64536C3.1176 7.50625 2.25 9.04658 2.25 10.7076V17C2.25 19.6233 4.37665 21.75 7 21.75H17C19.6234 21.75 21.75 19.6233 21.75 17V10.7076C21.75 9.04658 20.8824 7.50625 19.4619 6.64536L14.4619 3.61506ZM10.3155 4.89785C11.3509 4.27038 12.6491 4.27038 13.6845 4.89785L18.6845 7.92816C19.6564 8.51718 20.25 9.5711 20.25 10.7076V17C20.25 18.7949 18.7949 20.25 17 20.25H7C5.20508 20.25 3.75 18.7949 3.75 17V10.7076C3.75 9.57109 4.34362 8.51719 5.31552 7.92816L10.3155 4.89785ZM15 17.75C15.4142 17.75 15.75 17.4142 15.75 17C15.75 16.5858 15.4142 16.25 15 16.25H9C8.58579 16.25 8.25 16.5858 8.25 17C8.25 17.4142 8.58579 17.75 9 17.75H15Z" fill="#16171D"/>
</svg>
