<svg width="24" height="24" viewBox="0 0 24 24" fill="none" xmlns="http://www.w3.org/2000/svg">
<path d="M4 19.5425V4.45749C4 4.04454 4.14815 3.69814 4.44444 3.4183C4.74074 3.13847 5.08642 2.99903 5.48148 3.00001C5.60494 3.00001 5.73481 3.01798 5.87111 3.05393C6.00741 3.08988 6.13679 3.14478 6.25926 3.21863L18.3333 10.7611C18.5555 10.9069 18.7225 11.0891 18.8341 11.3077C18.9457 11.5263 19.001 11.7571 19 12C19 12.2429 18.9442 12.4737 18.8326 12.6923C18.721 12.9109 18.5546 13.0931 18.3333 13.2388L6.25926 20.7813C6.1358 20.8542 6.00592 20.9091 5.86963 20.946C5.73333 20.983 5.60395 21.0009 5.48148 21C5.08642 21 4.74074 20.86 4.44444 20.5802C4.14815 20.3004 4 19.9545 4 19.5425Z" fill="black"/>
</svg>
