<svg width="24" height="24" viewBox="0 0 24 24" fill="none" xmlns="http://www.w3.org/2000/svg">
<path fill-rule="evenodd" clip-rule="evenodd" d="M2.45004 8.6C8.18338 4.3 15.8167 4.3 21.55 8.6C21.8814 8.84853 22.3515 8.78137 22.6 8.45C22.8486 8.11863 22.7814 7.64853 22.45 7.4C16.1834 2.7 7.81671 2.7 1.55004 7.4C1.21867 7.64853 1.15152 8.11863 1.40004 8.45C1.64857 8.78137 2.11867 8.84853 2.45004 8.6ZM12.5675 20.0005C12.8446 19.6926 12.8196 19.2184 12.5117 18.9413C12.2038 18.6642 11.7296 18.6892 11.4525 18.9971L11.4425 19.0082C11.1654 19.3161 11.1904 19.7903 11.4983 20.0674C11.8062 20.3445 12.2804 20.3195 12.5575 20.0116L12.5675 20.0005ZM18.55 12.6C14.8167 9.8 9.18338 9.8 5.45004 12.6C5.11867 12.8485 4.64857 12.7814 4.40004 12.45C4.15152 12.1186 4.21867 11.6485 4.55004 11.4C8.81671 8.2 15.1834 8.2 19.45 11.4C19.7814 11.6485 19.8486 12.1186 19.6 12.45C19.3515 12.7814 18.8814 12.8485 18.55 12.6ZM8.89627 16.1369C10.9042 14.8878 13.0963 14.8875 15.1039 16.1369C15.4556 16.3557 15.9181 16.248 16.137 15.8964C16.3558 15.5447 16.2481 15.0822 15.8965 14.8633C13.4035 13.3119 10.5969 13.3124 8.10393 14.8633C7.75222 15.0821 7.64448 15.5446 7.86328 15.8963C8.08208 16.248 8.54457 16.3557 8.89627 16.1369Z" fill="#16171D"/>
</svg>
