<svg width="24" height="24" viewBox="0 0 24 24" fill="none" xmlns="http://www.w3.org/2000/svg">
<path fill-rule="evenodd" clip-rule="evenodd" d="M2.46967 2.46967C2.76256 2.17678 3.23744 2.17678 3.53033 2.46967L16.0134 14.9527C16.0254 14.964 16.0371 14.9756 16.0483 14.9876L21.5303 20.4697C21.8232 20.7626 21.8232 21.2374 21.5303 21.5303C21.2374 21.8232 20.7626 21.8232 20.4697 21.5303L15.0314 16.0921C13.0437 14.8875 10.8801 14.9025 8.89627 16.1367C8.54457 16.3555 8.08208 16.2477 7.86328 15.896C7.64448 15.5443 7.75222 15.0818 8.10393 14.863C9.56129 13.9564 11.1259 13.5796 12.6723 13.733L9.67312 10.7338L9.66873 10.7347C8.13863 11.0477 6.68746 11.6718 5.45004 12.5999C5.11867 12.8484 4.64857 12.7813 4.40004 12.4499C4.15152 12.1185 4.21867 11.6484 4.55004 11.3999C5.71934 10.5229 7.04303 9.88873 8.43272 9.49338L5.65762 6.71828C4.54375 7.20993 3.46744 7.83695 2.45004 8.6C2.11867 8.84853 1.64857 8.78137 1.40004 8.45C1.15152 8.11863 1.21867 7.64853 1.55004 7.4C2.49852 6.68865 3.49577 6.0845 4.52732 5.58798L2.46967 3.53033C2.17678 3.23744 2.17678 2.76256 2.46967 2.46967ZM12.5117 18.9413C12.8196 19.2184 12.8446 19.6926 12.5675 20.0005L12.5575 20.0116C12.2804 20.3195 11.8062 20.3445 11.4983 20.0674C11.1904 19.7903 11.1654 19.3161 11.4425 19.0082L11.4525 18.9971C11.7296 18.6892 12.2038 18.6642 12.5117 18.9413ZM10.0918 5.49224C14.0456 5.00472 18.1329 6.03712 21.55 8.6C21.8814 8.84853 22.3515 8.78137 22.6 8.45C22.8486 8.11863 22.7814 7.64853 22.45 7.4C18.7224 4.60425 14.2467 3.46857 9.90826 4.00351C9.49716 4.0542 9.20499 4.42856 9.25568 4.83966C9.30637 5.25076 9.68073 5.54293 10.0918 5.49224ZM13.9867 9.88585C14.0778 9.48178 14.4793 9.22807 14.8833 9.31917C16.5215 9.68851 18.0902 10.38 19.45 11.3999C19.7814 11.6484 19.8486 12.1185 19.6 12.4499C19.3515 12.7813 18.8814 12.8484 18.55 12.5999C17.3727 11.7169 16.0019 11.109 14.5534 10.7824C14.1494 10.6913 13.8956 10.2899 13.9867 9.88585Z" fill="#16171D"/>
</svg>
