<svg width="24" height="24" viewBox="0 0 24 24" fill="none" xmlns="http://www.w3.org/2000/svg">
<path fill-rule="evenodd" clip-rule="evenodd" d="M3.53033 2.46967C3.23744 2.17678 2.76256 2.17678 2.46967 2.46967C2.17678 2.76256 2.17678 3.23744 2.46967 3.53033L5.18934 6.25H3.6C2.85442 6.25 2.25 6.85442 2.25 7.6V16.4C2.25 17.1456 2.85441 17.75 3.6 17.75H14.4C15.0203 17.75 15.5429 17.3316 15.701 16.7617L20.4697 21.5303C20.7626 21.8232 21.2374 21.8232 21.5303 21.5303C21.8232 21.2374 21.8232 20.7626 21.5303 20.4697L3.53033 2.46967ZM14.25 15.3107L6.66999 7.73065C6.61537 7.74331 6.55847 7.75 6.5 7.75H3.75V16.25H14.25V15.3107ZM11.5 6.25C11.0858 6.25 10.75 6.58579 10.75 7C10.75 7.41421 11.0858 7.75 11.5 7.75H14.25V10.719C14.25 11.8636 15.585 12.4888 16.4642 11.7561L20.25 8.60128V15.5C20.25 15.9142 20.5858 16.25 21 16.25C21.4142 16.25 21.75 15.9142 21.75 15.5V8.28102C21.75 7.13645 20.415 6.51118 19.5358 7.24393L15.75 10.3987V7.6C15.75 6.85442 15.1456 6.25 14.4 6.25H11.5Z" fill="#16171D"/>
</svg>
